<?xml version="1.0" encoding="UTF-8" standalone="no"?>
<!-- Generator: Adobe Illustrator 24.3.0, SVG Export Plug-In . SVG Version: 6.00 Build 0)  -->

<svg
   version="1.1"
   x="0px"
   y="0px"
   viewBox="0 0 963.60999 931.51001"
   xml:space="preserve"
   id="svg19"
   sodipodi:docname="315949ff623122869508aabcd20d62f0.svg"
   width="963.60999"
   height="931.51001"
   xmlns:inkscape="http://www.inkscape.org/namespaces/inkscape"
   xmlns:sodipodi="http://sodipodi.sourceforge.net/DTD/sodipodi-0.dtd"
   xmlns="http://www.w3.org/2000/svg"
   xmlns:svg="http://www.w3.org/2000/svg"><defs
   id="defs23" /><sodipodi:namedview
   id="namedview21"
   pagecolor="#ffffff"
   bordercolor="#666666"
   borderopacity="1.0"
   inkscape:pageshadow="2"
   inkscape:pageopacity="0.0"
   inkscape:pagecheckerboard="0" />
<style
   type="text/css"
   id="style2">
	.st0{display:none;}
	.st1{fill:url(#SVGID_1_);}
</style>
<g
   id="Слой_1"
   class="st0"
   transform="translate(-11.38,-14.68)">
</g>
<g
   id="Слой_2"
   transform="translate(-11.38,-14.68)">
	
		<radialGradient
   id="SVGID_1_"
   cx="797.62988"
   cy="774.66931"
   r="843.4292"
   fx="790.64478"
   fy="774.9986"
   gradientUnits="userSpaceOnUse">
		<stop
   offset="0"
   style="stop-color:#6FFFFF"
   id="stop5" />
		<stop
   offset="0.0441"
   style="stop-color:#75F5FF"
   id="stop7" />
		<stop
   offset="0.2868"
   style="stop-color:#8DCEFF"
   id="stop9" />
		<stop
   offset="0.65"
   style="stop-color:#AD98FE"
   id="stop11" />
		<stop
   offset="0.827"
   style="stop-color:#BA83FE"
   id="stop13" />
	</radialGradient>
	<path
   class="st1"
   d="m 974.99,517.42 c 0,5.85 -0.12,11.67 -0.36,17.46 0,0.01 0,0.01 0,0.01 -2.08,50.45 -13.09,98.66 -31.53,143.16 -23.5,-30.97 -57.17,-53.79 -96.04,-63.48 2.83,-9.11 5.27,-18.39 7.3,-27.83 4.77,-22.08 7.27,-45 7.27,-68.5 0,-61.54 -17.17,-119.07 -47,-168.05 1.75,-17.13 2.65,-34.5 2.65,-52.09 0,-41.76 -5.05,-82.32 -14.57,-121.13 100.2,74.97 166.36,191.12 171.89,322.54 0.27,5.94 0.39,11.9 0.39,17.91 z M 910.22,741.6 c -9.91,-26.51 -29.34,-48.38 -54.14,-61.46 -5.92,-3.13 -12.14,-5.76 -18.62,-7.81 -4.24,-1.35 -8.58,-2.46 -13.01,-3.31 -7.11,-1.38 -14.44,-2.1 -21.95,-2.1 -63.51,0 -115,51.48 -115,114.99 0,7.63 0.74,15.09 2.17,22.3 7.39,37.67 33.18,68.73 67.62,83.46 13.88,5.95 29.15,9.23 45.2,9.23 15.47,0 30.23,-3.05 43.7,-8.61 16.01,-6.57 30.19,-16.65 41.61,-29.29 18.45,-20.39 29.68,-47.45 29.68,-77.11 0.01,-14.16 -2.56,-27.74 -7.26,-40.29 z M 637.2,826.38 c -31.26,10.06 -64.59,15.49 -99.19,15.49 -57.71,0 -111.9,-15.11 -158.81,-41.58 -22.47,3.04 -45.41,4.62 -68.71,4.62 -38.5,0 -76,-4.29 -112.05,-12.42 80.6,93.95 201.7,153.7 337.11,153.7 56.37,0 110.26,-10.35 159.77,-29.23 -28.04,-22.93 -48.75,-54.47 -58.12,-90.58 z M 424.79,385.99 h -0.14 c -70.92,0 -138.12,15.94 -198.21,44.43 -48.71,23.09 -92.76,54.43 -130.31,92.21 -34,34.19 -62.7,73.66 -84.75,117.08 40.78,36.71 88.19,66.2 140.21,86.45 51.55,20.08 107.63,31.1 166.28,31.1 0.65,0 1.3,0 1.95,-0.01 C 447.98,756.72 563.71,703.59 646.57,618.34 537.7,585.29 452.87,496.95 424.79,385.99 Z m -323.54,65.52 c 44.01,-37.75 95.29,-67.26 151.44,-86.15 37.47,-69.79 99.79,-124.23 175.13,-151.51 13.46,-46.2 36.85,-88.17 67.69,-123.44 -201.49,17.75 -363.75,168.21 -394.26,361.1 z M 748.81,142.44 C 731.9,95.87 707.65,52.81 677.46,14.68 h -0.01 C 624.36,26.65 576.6,52.69 538.3,88.67 c -33.62,31.58 -59.97,70.8 -76.25,114.91 -11.97,32.4 -18.5,67.42 -18.5,103.97 0,12.36 0.74,24.55 2.21,36.52 1.76,14.63 4.59,28.95 8.39,42.85 h 0.01 c 27.99,102.42 108.87,183 211.47,210.58 25.22,-29.33 46.78,-61.9 63.97,-96.98 1.81,-3.64 3.54,-7.31 5.22,-11 26.55,-57.96 41.36,-122.43 41.4,-190.34 v -0.25 c 0,-54.96 -9.67,-107.66 -27.41,-156.49 z"
   id="path16"
   style="fill:url(#SVGID_1_)" />
</g>
</svg>
